<svg width="11" height="11" viewBox="0 0 11 11" fill="none" xmlns="http://www.w3.org/2000/svg">
<path d="M5.93317 2.96486C6.48563 2.96486 6.93349 2.517 6.93349 1.96455C6.93349 1.41209 6.48563 0.964233 5.93317 0.964233C5.38072 0.964233 4.93286 1.41209 4.93286 1.96455C4.93286 2.517 5.38072 2.96486 5.93317 2.96486Z" stroke="black"/>
<path d="M9.2176 6.43153C9.77005 6.43153 10.2179 5.98368 10.2179 5.43122C10.2179 4.87876 9.77005 4.43091 9.2176 4.43091C8.66514 4.43091 8.21729 4.87876 8.21729 5.43122C8.21729 5.98368 8.66514 6.43153 9.2176 6.43153Z" stroke="black"/>
<path d="M5.93317 9.69203C6.48563 9.69203 6.93349 9.24418 6.93349 8.69172C6.93349 8.13926 6.48563 7.69141 5.93317 7.69141C5.38072 7.69141 4.93286 8.13926 4.93286 8.69172C4.93286 9.24418 5.38072 9.69203 5.93317 9.69203Z" stroke="black"/>
<path d="M2.60566 8.22426C3.15812 8.22426 3.60597 7.7764 3.60597 7.22395C3.60597 6.67149 3.15812 6.22363 2.60566 6.22363C2.0532 6.22363 1.60535 6.67149 1.60535 7.22395C1.60535 7.7764 2.0532 8.22426 2.60566 8.22426Z" stroke="black"/>
<path d="M2.60566 4.31239C3.15812 4.31239 3.60597 3.86454 3.60597 3.31208C3.60597 2.75962 3.15812 2.31177 2.60566 2.31177C2.0532 2.31177 1.60535 2.75962 1.60535 3.31208C1.60535 3.86454 2.0532 4.31239 2.60566 4.31239Z" stroke="black"/>
<path d="M5.93135 5.83865C6.37749 5.83865 6.73916 5.47698 6.73916 5.03084C6.73916 4.58469 6.37749 4.22302 5.93135 4.22302C5.4852 4.22302 5.12354 4.58469 5.12354 5.03084C5.12354 5.47698 5.4852 5.83865 5.93135 5.83865Z" stroke="black"/>
<path d="M3.46667 2.80151L4.96714 2.22229" stroke="black"/>
<path d="M6.6344 2.67957L8.5044 4.73003" stroke="black"/>
<path d="M8.60574 6.22192L6.64636 7.99052" stroke="black"/>
<path d="M3.15564 4.14734L5.31267 7.90796" stroke="black"/>
<path d="M3.49072 7.6897L4.93275 8.35829" stroke="black"/>
<path d="M2.98035 6.29584L5.39175 2.80505" stroke="black"/>
<path d="M3.52686 3.70386L5.21467 4.65776" stroke="black"/>
<path d="M6.74097 5.12183L8.21737 5.23355" stroke="black"/>
<path d="M5.9314 5.84033L5.93312 7.68971" stroke="black"/>
</svg>
