<svg width="12" height="12" viewBox="0 0 12 12" fill="none" xmlns="http://www.w3.org/2000/svg">
<path d="M2.87097 5.62903C2.87097 5.38853 2.67599 5.19355 2.43548 5.19355C2.19497 5.19355 2 5.38853 2 5.62903H2.87097ZM5.91935 11C6.15986 11 6.35484 10.805 6.35484 10.5645C6.35484 10.324 6.15986 10.129 5.91935 10.129V11ZM2 5.62903C2 5.86954 2.19497 6.06452 2.43548 6.06452C2.67599 6.06452 2.87097 5.86954 2.87097 5.62903H2ZM5.91935 2.87097C6.15986 2.87097 6.35484 2.67599 6.35484 2.43548C6.35484 2.19497 6.15986 2 5.91935 2V2.87097ZM2.43548 5.19355C2.19497 5.19355 2 5.38853 2 5.62903C2 5.86954 2.19497 6.06452 2.43548 6.06452V5.19355ZM5.91935 6.06452C6.15986 6.06452 6.35484 5.86954 6.35484 5.62903C6.35484 5.38853 6.15986 5.19355 5.91935 5.19355V6.06452ZM5.48387 5.62903C5.48387 5.86954 5.67885 6.06452 5.91935 6.06452C6.15986 6.06452 6.35484 5.86954 6.35484 5.62903H5.48387ZM6.35484 2.43548C6.35484 2.19497 6.15986 2 5.91935 2C5.67885 2 5.48387 2.19497 5.48387 2.43548H6.35484ZM6.35484 5.62903C6.35484 5.38853 6.15986 5.19355 5.91935 5.19355C5.67885 5.19355 5.48387 5.38853 5.48387 5.62903H6.35484ZM5.48387 7.66129C5.48387 7.90179 5.67885 8.09677 5.91935 8.09677C6.15986 8.09677 6.35484 7.90179 6.35484 7.66129H5.48387ZM5.91935 10.129C5.67885 10.129 5.48387 10.324 5.48387 10.5645C5.48387 10.805 5.67885 11 5.91935 11V10.129ZM11 7.66129C11 7.42079 10.805 7.22581 10.5645 7.22581C10.324 7.22581 10.129 7.42079 10.129 7.66129H11ZM5.48387 10.5645C5.48387 10.805 5.67885 11 5.91935 11C6.15986 11 6.35484 10.805 6.35484 10.5645H5.48387ZM6.35484 7.66129C6.35484 7.42079 6.15986 7.22581 5.91935 7.22581C5.67885 7.22581 5.48387 7.42079 5.48387 7.66129H6.35484ZM5.91935 2C5.67885 2 5.48387 2.19497 5.48387 2.43548C5.48387 2.67599 5.67885 2.87097 5.91935 2.87097V2ZM10.129 7.66129C10.129 7.90179 10.324 8.09677 10.5645 8.09677C10.805 8.09677 11 7.90179 11 7.66129H10.129ZM10.5645 8.09677C10.805 8.09677 11 7.90179 11 7.66129C11 7.42079 10.805 7.22581 10.5645 7.22581V8.09677ZM5.91935 7.22581C5.67885 7.22581 5.48387 7.42079 5.48387 7.66129C5.48387 7.90179 5.67885 8.09677 5.91935 8.09677V7.22581ZM2 5.62903V8.24194H2.87097V5.62903H2ZM2 8.24194C2 9.7652 3.23483 11 4.75806 11V10.129C3.71585 10.129 2.87097 9.28414 2.87097 8.24194H2ZM4.75806 11H5.91935V10.129H4.75806V11ZM2.87097 5.62903V4.75806H2V5.62903H2.87097ZM2.87097 4.75806C2.87097 3.71585 3.71585 2.87097 4.75806 2.87097V2C3.23483 2 2 3.23483 2 4.75806H2.87097ZM4.75806 2.87097H5.91935V2H4.75806V2.87097ZM2.43548 6.06452H5.91935V5.19355H2.43548V6.06452ZM6.35484 5.62903V2.43548H5.48387V5.62903H6.35484ZM5.48387 5.62903V7.66129H6.35484V5.62903H5.48387ZM5.91935 11H8.24194V10.129H5.91935V11ZM8.24194 11C9.7652 11 11 9.7652 11 8.24194H10.129C10.129 9.28414 9.28414 10.129 8.24194 10.129V11ZM11 8.24194V7.66129H10.129V8.24194H11ZM6.35484 10.5645V7.66129H5.48387V10.5645H6.35484ZM5.91935 2.87097H8.24194V2H5.91935V2.87097ZM8.24194 2.87097C9.28414 2.87097 10.129 3.71585 10.129 4.75806H11C11 3.23483 9.7652 2 8.24194 2V2.87097ZM10.129 4.75806V7.66129H11V4.75806H10.129ZM10.5645 7.22581H5.91935V8.09677H10.5645V7.22581Z" fill="black"/>
</svg>
