<svg width="12" height="12" viewBox="0 0 12 12" fill="none" xmlns="http://www.w3.org/2000/svg">
<g clip-path="url(#clip0_263_4428)">
<path d="M5.99996 2.26454L7.21454 4.16663H4.76246L5.99996 2.26454ZM5.99996 0.958295C5.92122 0.961674 5.84452 0.984338 5.77659 1.0243C5.70866 1.06425 5.65159 1.12028 5.61038 1.18746L3.52496 4.39579C3.49046 4.46726 3.47253 4.5456 3.47253 4.62496C3.47253 4.70432 3.49046 4.78266 3.52496 4.85413C3.5627 4.92432 3.61899 4.98281 3.68769 5.02322C3.75638 5.06363 3.83485 5.08441 3.91454 5.08329H8.06246C8.1412 5.07992 8.2179 5.05725 8.28583 5.01729C8.35376 4.97733 8.41083 4.92131 8.45204 4.85413C8.49737 4.78629 8.52156 4.70654 8.52156 4.62496C8.52156 4.54338 8.49737 4.46363 8.45204 4.39579L6.38954 1.18746C6.3518 1.11727 6.29551 1.05878 6.22682 1.01837C6.15812 0.977959 6.07965 0.95718 5.99996 0.958295Z" fill="black"/>
<path d="M10.3542 10.3541H7.14583C7.02428 10.3541 6.9077 10.3058 6.82174 10.2199C6.73579 10.1339 6.6875 10.0174 6.6875 9.89579V6.68746C6.6875 6.5659 6.73579 6.44932 6.82174 6.36337C6.9077 6.27741 7.02428 6.22913 7.14583 6.22913H10.3542C10.4757 6.22913 10.5923 6.27741 10.6783 6.36337C10.7642 6.44932 10.8125 6.5659 10.8125 6.68746V9.89579C10.8125 10.0174 10.7642 10.1339 10.6783 10.2199C10.5923 10.3058 10.4757 10.3541 10.3542 10.3541ZM7.60417 9.43746H9.89583V7.14579H7.60417V9.43746Z" fill="black"/>
<path d="M3.47917 6.91667C3.75112 6.91667 4.01696 6.99731 4.24308 7.1484C4.46919 7.29948 4.64543 7.51423 4.7495 7.76548C4.85357 8.01673 4.8808 8.29319 4.82775 8.55992C4.77469 8.82664 4.64374 9.07164 4.45144 9.26394C4.25914 9.45624 4.01414 9.58719 3.74742 9.64025C3.48069 9.6933 3.20423 9.66607 2.95298 9.562C2.70173 9.45793 2.48698 9.28169 2.3359 9.05558C2.18481 8.82946 2.10417 8.56362 2.10417 8.29167C2.10417 7.92699 2.24903 7.57726 2.5069 7.31939C2.76476 7.06153 3.1145 6.91667 3.47917 6.91667ZM3.47917 6C3.02592 6 2.58285 6.1344 2.20599 6.38622C1.82912 6.63803 1.53539 6.99594 1.36194 7.41468C1.18849 7.83343 1.14311 8.29421 1.23153 8.73875C1.31996 9.18329 1.53822 9.59162 1.85871 9.91212C2.17921 10.2326 2.58755 10.4509 3.03209 10.5393C3.47663 10.6277 3.9374 10.5823 4.35615 10.4089C4.7749 10.2354 5.13281 9.94171 5.38462 9.56485C5.63643 9.18799 5.77083 8.74492 5.77083 8.29167C5.77083 7.99072 5.71156 7.69272 5.59639 7.41468C5.48122 7.13665 5.31242 6.88401 5.09962 6.67121C4.88682 6.45841 4.63419 6.28961 4.35615 6.17444C4.07811 6.05928 3.78011 6 3.47917 6Z" fill="black"/>
</g>
<defs>
<clipPath id="clip0_263_4428">
<rect width="11" height="11" fill="white" transform="translate(0.5 0.5)"/>
</clipPath>
</defs>
</svg>
