<svg width="12" height="12" viewBox="0 0 12 12" fill="none" xmlns="http://www.w3.org/2000/svg">
<g clip-path="url(#clip0_263_7055)">
<path d="M6 3.70837V6.45837" stroke="#040404" stroke-linecap="round"/>
<path d="M5.99996 8.29167C6.25309 8.29167 6.45829 8.08646 6.45829 7.83333C6.45829 7.5802 6.25309 7.375 5.99996 7.375C5.74683 7.375 5.54163 7.5802 5.54163 7.83333C5.54163 8.08646 5.74683 8.29167 5.99996 8.29167Z" fill="#1C274C"/>
<path d="M4.72401 1.87496C5.26474 1.5694 5.61972 1.41663 6 1.41663C6.51049 1.41663 6.97543 1.69195 7.90525 2.24259L8.21975 2.42884C9.14958 2.97948 9.61451 3.2548 9.86975 3.70829C10.125 4.16178 10.125 4.71243 10.125 5.81374V6.18618C10.125 7.28751 10.125 7.83815 9.86975 8.29163C9.61451 8.7451 9.14958 9.02042 8.21975 9.57106L7.90525 9.75733C6.97543 10.308 6.51049 10.5833 6 10.5833C5.48951 10.5833 5.02458 10.308 4.09475 9.75733L3.78026 9.57106C2.85043 9.02042 2.38551 8.7451 2.13026 8.29163C1.875 7.83815 1.875 7.28751 1.875 6.18618V5.81374C1.875 4.71243 1.875 4.16178 2.13026 3.70829C2.3315 3.35077 2.66305 3.10398 3.25 2.74572" stroke="#040404" stroke-linecap="round"/>
</g>
<defs>
<clipPath id="clip0_263_7055">
<rect width="11" height="11" fill="white" transform="translate(0.5 0.5)"/>
</clipPath>
</defs>
</svg>
