<svg width="11" height="11" viewBox="0 0 11 11" fill="none" xmlns="http://www.w3.org/2000/svg">
<g clip-path="url(#clip0_263_6647)">
<path d="M8.24996 1.375C9.00942 1.375 9.62496 1.99054 9.62496 2.75C9.62496 3.50946 9.00942 4.125 8.24996 4.125H6.87496C6.27638 4.125 5.76717 3.74275 5.57833 3.20833H5.04163C4.53746 3.20833 4.12496 3.62083 4.12496 4.125V4.20337C4.65938 4.39221 5.04163 4.90142 5.04163 5.5C5.04163 6.09858 4.65938 6.60779 4.12496 6.79663V6.875C4.12496 7.37917 4.53746 7.79167 5.04163 7.79167H5.57788C5.76671 7.25771 6.27638 6.875 6.87496 6.875H8.24996C9.00942 6.875 9.62496 7.49054 9.62496 8.25C9.62496 9.00946 9.00942 9.625 8.24996 9.625H6.87496C6.27638 9.625 5.76717 9.24275 5.57833 8.70833H5.04163C4.02871 8.70833 3.20829 7.88792 3.20829 6.875H2.29163C1.53217 6.875 0.916626 6.25946 0.916626 5.5C0.916626 4.74054 1.53217 4.125 2.29163 4.125H3.20829C3.20829 3.11208 4.02871 2.29167 5.04163 2.29167H5.57788C5.76671 1.75771 6.27638 1.375 6.87496 1.375H8.24996ZM8.24996 7.79167H6.87496C6.62196 7.79167 6.41663 7.997 6.41663 8.25C6.41663 8.503 6.62196 8.70833 6.87496 8.70833H8.24996C8.50296 8.70833 8.70829 8.503 8.70829 8.25C8.70829 7.997 8.50296 7.79167 8.24996 7.79167ZM3.66663 5.04167H2.29163C2.03863 5.04167 1.83329 5.247 1.83329 5.5C1.83329 5.753 2.03863 5.95833 2.29163 5.95833H3.66663C3.91963 5.95833 4.12496 5.753 4.12496 5.5C4.12496 5.247 3.91963 5.04167 3.66663 5.04167ZM8.24996 2.29167H6.87496C6.62196 2.29167 6.41663 2.497 6.41663 2.75C6.41663 3.003 6.62196 3.20833 6.87496 3.20833H8.24996C8.50296 3.20833 8.70829 3.003 8.70829 2.75C8.70829 2.497 8.50296 2.29167 8.24996 2.29167Z" fill="black"/>
</g>
<defs>
<clipPath id="clip0_263_6647">
<rect width="11" height="11" fill="white"/>
</clipPath>
</defs>
</svg>
