<svg width="10" height="10" viewBox="0 0 10 10" fill="none" xmlns="http://www.w3.org/2000/svg">
<path fill-rule="evenodd" clip-rule="evenodd" d="M2.63049 5.1929C2.58336 3.8717 3.5874 2.76048 4.87542 2.70831C6.16346 2.76048 7.1675 3.8717 7.12037 5.1929C7.12037 5.74165 7.70171 6.27623 7.71875 6.82623C7.71875 6.83402 7.71875 6.84177 7.71875 6.84956C7.73133 7.20194 7.4635 7.49827 7.11996 7.51206H5.82321C5.82442 7.78206 5.72517 8.0424 5.54575 8.23998C5.37321 8.43215 5.13013 8.54148 4.87542 8.54148C4.62071 8.54148 4.37767 8.43215 4.20513 8.23998C4.02567 8.0424 3.92644 7.78206 3.92765 7.51206H2.63049C2.28695 7.49827 2.0191 7.20194 2.03168 6.84956C2.03168 6.84177 2.03168 6.83402 2.03168 6.82623C2.04915 6.2779 2.63049 5.74206 2.63049 5.1929Z" stroke="black" stroke-linecap="round" stroke-linejoin="round"/>
<path d="M3.92761 7.19958C3.75502 7.19958 3.61511 7.3395 3.61511 7.51208C3.61511 7.68467 3.75502 7.82458 3.92761 7.82458V7.19958ZM5.82318 7.82458C5.99577 7.82458 6.13568 7.68467 6.13568 7.51208C6.13568 7.3395 5.99577 7.19958 5.82318 7.19958V7.82458ZM5.28164 2.1875C5.45422 2.1875 5.59414 2.04759 5.59414 1.875C5.59414 1.70241 5.45422 1.5625 5.28164 1.5625V2.1875ZM4.46914 1.5625C4.29656 1.5625 4.15665 1.70241 4.15665 1.875C4.15665 2.04759 4.29656 2.1875 4.46914 2.1875V1.5625ZM3.92761 7.82458H5.82318V7.19958H3.92761V7.82458ZM5.28164 1.5625H4.46914V2.1875H5.28164V1.5625Z" fill="black"/>
</svg>
