<svg width="12" height="12" viewBox="0 0 12 12" fill="none" xmlns="http://www.w3.org/2000/svg">
<path fill-rule="evenodd" clip-rule="evenodd" d="M3.5065 7.78259C3.09138 7.3587 2.80981 6.8223 2.69674 6.23987C2.58273 5.6558 2.64128 5.0512 2.86522 4.49986C3.08725 3.95163 3.46632 3.48122 3.95482 3.1477C4.94595 2.47078 6.25074 2.47078 7.24184 3.1477C7.73039 3.48122 8.10944 3.95163 8.33144 4.49986C8.55541 5.0512 8.61397 5.6558 8.49992 6.23987C8.38688 6.8223 8.10531 7.3587 7.69016 7.78259C7.14042 8.34673 6.3861 8.66493 5.59832 8.66493C4.81059 8.66493 4.05627 8.34673 3.5065 7.78259Z" stroke="black" stroke-linecap="round" stroke-linejoin="round"/>
<mask id="path-2-inside-1_206_6160" fill="white">
<path d="M5.6017 3.6974C5.40398 3.71835 5.2607 3.89561 5.28163 4.09333C5.30261 4.29105 5.47987 4.43434 5.67758 4.41339L5.6017 3.6974ZM6.49037 4.89222C6.56789 5.07533 6.77914 5.16091 6.96226 5.08339C7.14533 5.00588 7.23091 4.79462 7.15339 4.61153L6.49037 4.89222ZM7.98821 7.48171C7.84752 7.34126 7.61957 7.34146 7.47912 7.48219C7.33862 7.62288 7.33886 7.85083 7.47955 7.99128L7.98821 7.48171ZM9.10579 9.61464C9.24653 9.75514 9.47443 9.75494 9.61493 9.61421C9.75538 9.47347 9.75518 9.24557 9.61445 9.10507L9.10579 9.61464ZM5.67758 4.41339C6.02438 4.37664 6.35443 4.57107 6.49037 4.89222L7.15339 4.61153C6.89386 3.99842 6.26381 3.62724 5.6017 3.6974L5.67758 4.41339ZM7.47955 7.99128L9.10579 9.61464L9.61445 9.10507L7.98821 7.48171L7.47955 7.99128Z"/>
</mask>
<path d="M5.6017 3.6974C5.40398 3.71835 5.2607 3.89561 5.28163 4.09333C5.30261 4.29105 5.47987 4.43434 5.67758 4.41339L5.6017 3.6974ZM6.49037 4.89222C6.56789 5.07533 6.77914 5.16091 6.96226 5.08339C7.14533 5.00588 7.23091 4.79462 7.15339 4.61153L6.49037 4.89222ZM7.98821 7.48171C7.84752 7.34126 7.61957 7.34146 7.47912 7.48219C7.33862 7.62288 7.33886 7.85083 7.47955 7.99128L7.98821 7.48171ZM9.10579 9.61464C9.24653 9.75514 9.47443 9.75494 9.61493 9.61421C9.75538 9.47347 9.75518 9.24557 9.61445 9.10507L9.10579 9.61464ZM5.67758 4.41339C6.02438 4.37664 6.35443 4.57107 6.49037 4.89222L7.15339 4.61153C6.89386 3.99842 6.26381 3.62724 5.6017 3.6974L5.67758 4.41339ZM7.47955 7.99128L9.10579 9.61464L9.61445 9.10507L7.98821 7.48171L7.47955 7.99128Z" fill="black"/>
<path d="M6.1748 4.36069L6.09891 3.6447L5.10448 3.7501L5.18037 4.46609L6.1748 4.36069ZM6.95847 4.15109L6.29544 4.43178L6.68529 5.35266L7.34832 5.07197L6.95847 4.15109ZM7.83342 8.34452L8.34208 7.83495L7.63434 7.12848L7.12568 7.63804L7.83342 8.34452ZM9.26058 8.75184L8.75192 9.2614L9.45966 9.96788L9.96832 9.45831L9.26058 8.75184ZM5.6017 3.6974L5.70705 4.69184L5.70707 4.69183L5.6017 3.6974ZM5.28163 4.09333L4.28719 4.19859L4.28721 4.19883L5.28163 4.09333ZM5.67758 4.41339L5.78294 5.40783L5.78296 5.40783L5.67758 4.41339ZM6.49037 4.89222L5.56947 5.28202L5.56949 5.28209L6.49037 4.89222ZM6.96226 5.08339L7.35209 6.00428L7.35214 6.00426L6.96226 5.08339ZM7.15339 4.61153L6.2325 5.00136L6.23253 5.00142L7.15339 4.61153ZM7.98821 7.48171L7.2817 8.18942L7.28173 8.18945L7.98821 7.48171ZM7.47912 7.48219L8.18671 8.18882L8.18695 8.18857L7.47912 7.48219ZM7.47955 7.99128L6.77305 8.69899L6.77307 8.69901L7.47955 7.99128ZM9.10579 9.61464L9.81229 8.90693L9.81227 8.90691L9.10579 9.61464ZM9.61493 9.61421L10.3226 10.3207L10.3228 10.3206L9.61493 9.61421ZM9.61445 9.10507L10.321 8.39736L10.3209 8.39734L9.61445 9.10507ZM5.49634 2.70297C4.74931 2.78211 4.20814 3.45184 4.28719 4.19859L6.27608 3.98807C6.31326 4.33939 6.05866 4.65458 5.70705 4.69184L5.49634 2.70297ZM4.28721 4.19883C4.36644 4.94562 5.03601 5.48696 5.78294 5.40783L5.57223 3.41896C5.92374 3.38172 6.23877 3.63647 6.27605 3.98783L4.28721 4.19883ZM5.56949 5.28209C5.86234 5.97379 6.66042 6.29708 7.35209 6.00428L6.57242 4.16251C6.89785 4.02474 7.27344 4.17686 7.41124 4.50236L5.56949 5.28209ZM7.35214 6.00426C8.04381 5.71141 8.3671 4.9133 8.07425 4.22164L6.23253 5.00142C6.09473 4.67595 6.24685 4.30035 6.57237 4.16253L7.35214 6.00426ZM8.69471 6.774C8.16315 6.24335 7.30194 6.24407 6.77129 6.77581L8.18695 8.18857C7.93719 8.43885 7.53189 8.43918 7.2817 8.18942L8.69471 6.774ZM6.77153 6.77557C6.24054 7.30729 6.24165 8.1685 6.77305 8.69899L8.18605 7.28357C8.43608 7.53317 8.43671 7.93847 8.18671 8.18882L6.77153 6.77557ZM8.39929 10.3224C8.93087 10.853 9.79194 10.8523 10.3226 10.3207L8.90722 8.90771C9.15692 8.65758 9.56218 8.65724 9.81229 8.90693L8.39929 10.3224ZM10.3228 10.3206C10.8532 9.78901 10.8525 8.92804 10.321 8.39736L8.90794 9.81278C8.65783 9.5631 8.65751 9.15793 8.9071 8.90783L10.3228 10.3206ZM5.78296 5.40783C5.69191 5.41747 5.6052 5.36644 5.56947 5.28202L7.41127 4.50243C7.10366 3.77569 6.35686 3.33582 5.57221 3.41896L5.78296 5.40783ZM8.07428 4.22171C7.64308 3.20307 6.59631 2.58642 5.49633 2.70297L5.70707 4.69183C5.93131 4.66807 6.14463 4.79378 6.2325 5.00136L8.07428 4.22171ZM6.77307 8.69901L8.39931 10.3224L9.81227 8.90691L8.18603 7.28355L6.77307 8.69901ZM10.3209 8.39734L8.69469 6.77398L7.28173 8.18945L8.90797 9.81281L10.3209 8.39734Z" fill="black" mask="url(#path-2-inside-1_206_6160)"/>
</svg>
