<svg width="15" height="15" viewBox="0 0 15 15" fill="none" xmlns="http://www.w3.org/2000/svg">
<path d="M7.12109 14.8556C5.94816 14.7488 4.84772 14.3947 3.91309 13.8233C2.83394 13.1635 1.8137 12.0977 1.2154 11.0052L1.10437 10.8025L1.17245 10.7562C1.29852 10.6706 2.0871 10.2559 2.1239 10.2559C2.14394 10.2559 2.22901 10.3719 2.31295 10.5137C2.47194 10.7823 2.88497 11.3543 2.97031 11.424C2.99738 11.4461 3.01953 11.4811 3.01953 11.5018C3.01953 11.5486 3.60359 12.109 3.89639 12.343C4.53714 12.8553 5.18486 13.1872 6.03313 13.4379C7.47688 13.8646 8.92297 13.7694 10.2694 13.1589C10.7229 12.9533 11.3388 12.5422 11.7403 12.1773L11.921 12.0131L11.2936 11.4099C10.6708 10.8111 10.3988 10.5305 10.4062 10.4944C10.4083 10.4841 10.526 10.3653 10.6677 10.2305L10.9254 9.98539L11.6467 10.6992C12.0435 11.0918 12.3859 11.4171 12.4075 11.422C12.449 11.4313 12.7143 11.0802 12.9175 10.7471C13.7544 9.37502 14.0246 7.57988 13.635 5.97957C13.3778 4.92315 12.7872 3.88109 11.999 3.09283C11.0179 2.11174 9.88871 1.58826 8.29763 1.37691C8.14713 1.35693 8.01939 1.32614 8.0138 1.30848C8.0082 1.29081 7.99903 1.02257 7.99338 0.712402L7.9831 0.148438H8.11625C8.32411 0.148438 8.967 0.229649 9.29727 0.297617C9.76927 0.394766 10.4432 0.629844 10.9197 0.863574C12.0906 1.43794 13.0654 2.29801 13.7783 3.38574C14.5484 4.56084 14.9224 5.78164 14.9638 7.2553C14.9887 8.13875 14.8925 8.87167 14.6359 9.75345C14.0663 11.7114 12.723 13.2799 10.8271 14.2004C10.2089 14.5006 9.4272 14.7215 8.61523 14.8253C8.26985 14.8695 7.45537 14.886 7.12109 14.8556Z" fill="black"/>
<path d="M0.99002 10.5848C0.397051 9.28736 0.173135 8.26499 0.216201 7.05134C0.253467 6.00137 0.460156 5.16884 0.910713 4.25404C1.31305 3.4371 1.74277 2.85406 2.42891 2.19406C3.15828 1.49246 3.93764 0.986358 4.8287 0.635732C5.53736 0.356885 6.68847 0.120459 7.34249 0.119433L7.51991 0.119141L7.50986 2.30773C7.50433 3.51145 7.49697 4.49899 7.49354 4.50227C7.49012 4.50556 7.35547 4.5239 7.19434 4.54303C7.0332 4.56216 6.80305 4.60897 6.6829 4.64709C6.56275 4.68521 6.45728 4.70923 6.44852 4.7005C6.43976 4.69177 6.42869 3.95401 6.42392 3.06104L6.41521 1.4375L6.32138 1.43776C6.19851 1.43812 5.73907 1.55621 5.40723 1.67275C4.07683 2.13995 2.90568 3.11571 2.13107 4.4024C1.58346 5.31207 1.29125 6.57846 1.37809 7.66584C1.4479 8.54018 1.65011 9.28563 2.00519 9.97754C2.07134 10.1064 2.12996 10.2218 2.13547 10.2339C2.14098 10.246 2.13236 10.2559 2.11631 10.2559C2.08104 10.2559 1.27862 10.6811 1.17025 10.7572L1.09347 10.8111L0.99002 10.5848Z" fill="#DEFA3F"/>
<path d="M3.25687 11.7676L3.01206 11.5215L3.77419 10.7565L4.53632 9.99147L4.41869 9.84376C4.11664 9.46439 3.85827 8.87274 3.73429 8.27646C3.66863 7.96073 3.65542 7.82163 3.65504 7.44335C3.65454 6.93285 3.69775 6.65016 3.84348 6.21065C4.10853 5.41132 4.62409 4.73866 5.33395 4.2661C5.63088 4.06844 6.14132 3.81707 6.17577 3.85152C6.18532 3.86107 6.19883 4.06999 6.2058 4.31579L6.21846 4.76268L5.93284 4.95015C5.2422 5.40347 4.83266 5.95826 4.64384 6.69628C4.46308 7.40277 4.5377 8.16062 4.85146 8.80565C5.33718 9.80412 6.29791 10.4268 7.47811 10.5081L7.76562 10.5279V10.8419C7.76562 11.0146 7.7743 11.2191 7.78487 11.2963L7.80412 11.4368L7.45528 11.4202C7.09054 11.4028 6.65331 11.3257 6.33008 11.2217C6.03787 11.1277 5.57891 10.8953 5.32309 10.7117C5.09779 10.5501 5.09103 10.5474 5.03193 10.5988C4.99865 10.6277 4.65424 10.9579 4.26655 11.3325C3.87887 11.7071 3.54816 12.0137 3.53164 12.0137C3.51515 12.0137 3.39148 11.9029 3.25687 11.7676Z" fill="#DEFA3F"/>
<path d="M7.78458 11.2942C7.77415 11.2181 7.76562 11.0129 7.76562 10.8382C7.76562 10.4758 7.72209 10.5226 8.11719 10.4604C8.88576 10.3395 9.61376 9.87726 10.0489 9.23393C10.3198 8.83341 10.5277 8.2678 10.5714 7.81226C10.6747 6.7364 10.2333 5.74013 9.36758 5.09519C9.00725 4.82674 8.49948 4.61615 8.07195 4.55782C7.8028 4.52108 7.82422 4.5631 7.82422 4.07187V3.63403L7.94873 3.65044C8.58699 3.73446 8.9951 3.84904 9.42078 4.0637C9.78204 4.24587 10.0147 4.41603 10.3536 4.74585C10.886 5.26399 11.239 5.91811 11.4025 6.6894C11.4944 7.12317 11.4944 7.80687 11.4025 8.23435C11.1303 9.50009 10.4288 10.4562 9.3701 11.0045C8.92555 11.2347 8.51627 11.3552 7.98233 11.4131L7.80353 11.4325L7.78458 11.2942Z" fill="black"/>
</svg>
